<svg width="30" height="30" viewBox="0 0 30 30" fill="none" xmlns="http://www.w3.org/2000/svg">
<g clip-path="url(#clip0_588_760)">
<rect x="-330" y="-16" width="390" height="40" fill="#0F222E"/>
<path fill-rule="evenodd" clip-rule="evenodd" d="M24.6469 6.35306C24.7196 6.42563 24.7774 6.51184 24.8168 6.60675C24.8561 6.70167 24.8764 6.80342 24.8764 6.90618C24.8764 7.00894 24.8561 7.1107 24.8168 7.20561C24.7774 7.30052 24.7196 7.38674 24.6469 7.45931L7.45939 24.6468C7.31269 24.7935 7.11372 24.8759 6.90626 24.8759C6.6988 24.8759 6.49983 24.7935 6.35314 24.6468C6.20644 24.5001 6.12402 24.3011 6.12402 24.0937C6.12402 23.8862 6.20644 23.6873 6.35314 23.5406L23.5406 6.35306C23.6132 6.2803 23.6994 6.22258 23.7943 6.18319C23.8892 6.14381 23.991 6.12354 24.0938 6.12354C24.1965 6.12354 24.2983 6.14381 24.3932 6.18319C24.4881 6.22258 24.5743 6.2803 24.6469 6.35306Z" fill="white"/>
<path fill-rule="evenodd" clip-rule="evenodd" d="M6.35306 6.35306C6.2803 6.42563 6.22258 6.51184 6.18319 6.60675C6.14381 6.70167 6.12354 6.80342 6.12354 6.90618C6.12354 7.00894 6.14381 7.1107 6.18319 7.20561C6.22258 7.30052 6.2803 7.38674 6.35306 7.45931L23.5406 24.6468C23.6873 24.7935 23.8862 24.8759 24.0937 24.8759C24.3011 24.8759 24.5001 24.7935 24.6468 24.6468C24.7935 24.5001 24.8759 24.3011 24.8759 24.0937C24.8759 23.8862 24.7935 23.6873 24.6468 23.5406L7.45931 6.35306C7.38674 6.2803 7.30052 6.22258 7.20561 6.18319C7.1107 6.14381 7.00894 6.12354 6.90618 6.12354C6.80342 6.12354 6.70167 6.14381 6.60675 6.18319C6.51184 6.22258 6.42563 6.2803 6.35306 6.35306Z" fill="white"/>
</g>
<defs>
<clipPath id="clip0_588_760">
<rect width="30" height="30" fill="white"/>
</clipPath>
</defs>
</svg>
