<svg width="44" height="44" viewBox="0 0 44 44" fill="none" xmlns="http://www.w3.org/2000/svg">
<path d="M17.875 12.21V14.5337H43.9759C43.9395 13.7843 43.8611 12.837 43.5806 12.21" fill="#EC1C24"/>
<path d="M42.35 9.88623H17.875V12.21H43.5806C43.3015 11.343 42.8862 10.5524 42.35 9.88623" fill="#E6E7E8"/>
<path d="M37.125 7.5625H17.875V9.88625H42.35C41.2026 8.44938 39.314 7.5625 37.125 7.5625Z" fill="#EC1C24"/>
<path d="M43.9759 14.5337H17.875V16.8574H44V15.3085C44 15.1703 43.9911 15.0356 43.9869 14.9001C43.9842 14.863 43.9801 14.7674 43.9759 14.5337" fill="#E6E7E8"/>
<path d="M17.875 19.1812H44V16.8574H17.875V19.1812Z" fill="#EC1C24"/>
<path d="M17.875 21.5049H44V19.1812H17.875V21.5049" fill="#E6E7E8"/>
<path d="M17.875 21.5049H44V23.8286H17.875V21.5049Z" fill="#EC1C24"/>
<path d="M0 23.8289V26.1526H44V23.8289H17.875H0Z" fill="#E6E7E8"/>
<path d="M0 26.1526H44V28.4763H0V26.1526Z" fill="#EC1C24"/>
<path d="M0.0034375 29.9056C0.0034375 29.9056 -0.00275 30.4687 0.01375 30.8001H43.9862C44.0055 30.4604 43.9966 29.9056 43.9966 29.9056L44 28.4763H0L0.0034375 29.9056Z" fill="#E6E7E8"/>
<path d="M6.87499 37.8125H37.125C39.3202 37.8125 41.1448 37.015 42.3912 35.4475H1.60187C2.88887 37.0494 4.74787 37.8125 6.87156 37.8125" fill="#EC1C24"/>
<path d="M1.60533 35.4475H42.3947C42.9385 34.7566 43.3446 33.9678 43.591 33.1238H0.415955C0.666959 33.9653 1.07136 34.7531 1.60877 35.4475" fill="#E6E7E8"/>
<path d="M0.412483 33.1238H43.5875C43.8126 32.3679 43.9465 31.5878 43.9862 30.8H0.0137329C0.0817954 31.5948 0.145045 32.195 0.412483 33.1238Z" fill="#EC1C24"/>
<path d="M17.875 7.5625H6.875C2.31894 7.5625 0 10.9484 0 15.125V23.8288H17.875V7.5625Z" fill="#176496"/>
<path d="M1.92361 11.671L2.29761 11.3837L2.67092 11.671L2.52586 11.209L2.89779 10.9265H2.43854L2.29623 10.4624L2.15461 10.9265H1.69604L2.06936 11.209L1.92361 11.671Z" fill="white"/>
<path d="M4.39451 11.671L4.76851 11.3837L5.14182 11.671L4.99745 11.209L5.3687 10.9265H4.91013L4.76782 10.4624L4.6262 10.9265H4.16626L4.53957 11.209L4.39451 11.671Z" fill="white"/>
<path d="M7.12044 11.671L7.49376 11.3837L7.86776 11.671L7.72269 11.209L8.09394 10.9265H7.63813L7.49376 10.4624L7.35144 10.9265H6.89563L7.26482 11.209L7.12044 11.671Z" fill="white"/>
<path d="M9.82644 11.671L10.1998 11.3837L10.5738 11.671L10.4294 11.209L10.8006 10.9265H10.34L10.1998 10.4624L10.0581 10.9265H9.59888L9.9715 11.209L9.82644 11.671Z" fill="white"/>
<path d="M12.5421 11.671L12.9161 11.3837L13.2894 11.671L13.145 11.209L13.5169 10.9265H13.057L12.9154 10.4624L12.7737 10.9265H12.3152L12.6864 11.209L12.5421 11.671Z" fill="white"/>
<path d="M3.23879 12.8777L3.61211 12.591L3.98542 12.8777L3.84173 12.4163L4.21298 12.1338H3.75373L3.61142 11.6704L3.47186 12.1338H3.01123L3.38317 12.4163L3.23879 12.8777Z" fill="white"/>
<path d="M5.71035 12.8777L6.08366 12.591L6.45698 12.8777L6.3126 12.4163L6.68385 12.1338H6.22185L6.08366 11.6704L5.94135 12.1338H5.48279L5.85473 12.4163L5.71035 12.8777Z" fill="white"/>
<path d="M8.43627 12.8777L8.8089 12.591L9.18221 12.8777L9.03784 12.4163L9.40977 12.1338H8.95121L8.8089 11.6704L8.66659 12.1338H8.20734L8.57927 12.4163L8.43627 12.8777Z" fill="white"/>
<path d="M11.1409 12.8777L11.5149 12.591L11.8889 12.8777L11.7425 12.4163L12.1151 12.1338H11.6566L11.5142 11.6704L11.3733 12.1338H10.9141L11.286 12.4163L11.1409 12.8777Z" fill="white"/>
<path d="M13.86 12.8777L14.2306 12.591L14.6039 12.8777L14.4581 12.4163L14.8308 12.1338H14.3729L14.2299 11.6704L14.0889 12.1338H13.6297L14.0016 12.4163L13.86 12.8777Z" fill="white"/>
<path d="M15.3911 11.671L15.7644 11.3837L16.1384 11.671L15.9933 11.209L16.3646 10.9265H15.9087L15.7637 10.4624L15.6221 10.9265H15.1594L15.5354 11.209L15.3911 11.671Z" fill="white"/>
<path d="M1.88717 21.3262L2.26117 21.0422L2.63448 21.3262L2.49011 20.8683L2.86136 20.585L2.40279 20.5864L2.25979 20.123L2.11954 20.5864L1.65961 20.585L2.03154 20.8683L1.88717 21.3262Z" fill="white"/>
<path d="M4.35871 21.3262L4.73202 21.0422L5.10602 21.3262L4.96096 20.8683L5.33221 20.585L4.87434 20.5864L4.73134 20.123L4.5904 20.5864L4.13184 20.585L4.50309 20.8683L4.35871 21.3262Z" fill="white"/>
<path d="M7.08468 21.3262L7.45799 21.0422L7.83199 21.3262L7.68693 20.8683L8.05818 20.585L7.59687 20.5864L7.4573 20.123L7.31568 20.5864L6.85712 20.585L7.22905 20.8683L7.08468 21.3262Z" fill="white"/>
<path d="M9.79067 21.3262L10.164 21.0422L10.5373 21.3262L10.395 20.8683L10.7642 20.585L10.3049 20.5864L10.1633 20.123L10.0217 20.5864L9.56311 20.585L9.93436 20.8683L9.79067 21.3262Z" fill="white"/>
<path d="M12.5056 21.3262L12.8796 21.0422L13.2536 21.3262L13.1106 20.8683L13.4798 20.585L13.0212 20.5864L12.8789 20.123L12.738 20.5864L12.2787 20.585L12.65 20.8683L12.5056 21.3262Z" fill="white"/>
<path d="M15.3546 21.3262L15.7279 21.0422L16.1019 21.3262L15.9569 20.8683L16.3288 20.585L15.8675 20.5864L15.7273 20.123L15.5856 20.5864L15.125 20.585L15.499 20.8683L15.3546 21.3262Z" fill="white"/>
<path d="M1.92361 14.0856L2.29761 13.7982L2.67092 14.0856L2.52586 13.6236L2.89779 13.3411L2.43854 13.3424L2.29623 12.8777L2.15461 13.3424L1.69604 13.3411L2.06936 13.6236L1.92361 14.0856Z" fill="white"/>
<path d="M4.39451 14.0856L4.76851 13.7982L5.14182 14.0856L4.99745 13.6236L5.3687 13.3411L4.91013 13.3424L4.76782 12.8777L4.6262 13.3424L4.16626 13.3411L4.53957 13.6236L4.39451 14.0856Z" fill="white"/>
<path d="M7.12044 14.0856L7.49376 13.7982L7.86776 14.0856L7.72269 13.6236L8.09394 13.3411L7.63813 13.3424L7.49376 12.8777L7.35144 13.3424L6.89563 13.3411L7.26482 13.6236L7.12044 14.0856Z" fill="white"/>
<path d="M9.82644 14.0856L10.1998 13.7982L10.5738 14.0856L10.4294 13.6236L10.8006 13.3411L10.34 13.3424L10.1998 12.8777L10.0581 13.3424L9.59888 13.3411L9.9715 13.6236L9.82644 14.0856Z" fill="white"/>
<path d="M12.5421 14.0856L12.9161 13.7982L13.2894 14.0856L13.145 13.6236L13.5169 13.3411L13.057 13.3424L12.9154 12.8777L12.7737 13.3424L12.3152 13.3411L12.6864 13.6236L12.5421 14.0856Z" fill="white"/>
<path d="M3.23879 15.2927L3.61211 15.006L3.98542 15.2927L3.84173 14.8314L4.21298 14.5474H3.75373L3.61142 14.0854L3.47186 14.5474H3.01123L3.38317 14.8314L3.23879 15.2927Z" fill="white"/>
<path d="M5.71035 15.2927L6.08366 15.006L6.45698 15.2927L6.3126 14.8314L6.68385 14.5474H6.22185L6.08366 14.0854L5.94135 14.5474H5.48279L5.85473 14.8314L5.71035 15.2927Z" fill="white"/>
<path d="M8.43627 15.2927L8.8089 15.006L9.18221 15.2927L9.03784 14.8314L9.40977 14.5474H8.95121L8.8089 14.0854L8.66659 14.5474H8.20734L8.57927 14.8314L8.43627 15.2927Z" fill="white"/>
<path d="M11.1409 15.2927L11.5149 15.006L11.8889 15.2927L11.7425 14.8314L12.1151 14.5474H11.6566L11.5142 14.0854L11.3733 14.5474H10.9141L11.286 14.8314L11.1409 15.2927Z" fill="white"/>
<path d="M13.86 15.2927L14.2306 15.006L14.6039 15.2927L14.4581 14.8314L14.8308 14.5474H14.3729L14.2299 14.0854L14.0889 14.5474H13.6297L14.0016 14.8314L13.86 15.2927Z" fill="white"/>
<path d="M15.3911 14.0856L15.7644 13.7982L16.1384 14.0856L15.9933 13.6236L16.3646 13.3411L15.9087 13.3424L15.7637 12.8777L15.6221 13.3424L15.1594 13.3411L15.5354 13.6236L15.3911 14.0856Z" fill="white"/>
<path d="M1.88717 16.5L2.26117 16.2133L2.63448 16.5L2.48942 16.0394L2.86136 15.7561L2.40211 15.7575L2.25979 15.2927L2.11954 15.7575L1.65961 15.7561L2.03154 16.0394L1.88717 16.5Z" fill="white"/>
<path d="M4.35871 16.5L4.73202 16.2133L5.10602 16.5L4.96096 16.0394L5.33221 15.7561L4.87434 15.7575L4.73134 15.2927L4.5904 15.7575L4.13184 15.7561L4.5024 16.0394L4.35871 16.5Z" fill="white"/>
<path d="M7.08468 16.5L7.45799 16.2133L7.8313 16.5L7.68693 16.0394L8.05818 15.7561L7.59687 15.7575L7.4573 15.2927L7.31568 15.7575L6.85712 15.7561L7.22905 16.0394L7.08468 16.5Z" fill="white"/>
<path d="M9.79067 16.5L10.1633 16.2133L10.5373 16.5L10.395 16.0394L10.7642 15.7561L10.3049 15.7575L10.1633 15.2927L10.0217 15.7575L9.56311 15.7561L9.93436 16.0394L9.79067 16.5Z" fill="white"/>
<path d="M12.5056 16.5L12.8796 16.2133L13.2529 16.5L13.1106 16.0394L13.4798 15.7561L13.0206 15.7575L12.8789 15.2927L12.738 15.7575L12.2787 15.7561L12.65 16.0394L12.5056 16.5Z" fill="white"/>
<path d="M3.20235 17.7073L3.57567 17.4213L3.94898 17.7073L3.80529 17.2494L4.17586 16.9648H3.71661L3.57498 16.5L3.43404 16.9648H2.97479L3.34673 17.2494L3.20235 17.7073Z" fill="white"/>
<path d="M5.67393 17.7073L6.04724 17.4213L6.42055 17.7073L6.27618 17.2494L6.64743 16.9648H6.18749L6.04655 16.5L5.90493 16.9648H5.44568L5.8183 17.2494L5.67393 17.7073Z" fill="white"/>
<path d="M8.40057 17.7073L8.77251 17.4213L9.14651 17.7073L8.99938 17.2494L9.37338 16.9648H8.91482L8.77251 16.5L8.63088 16.9648H8.17163L8.54357 17.2494L8.40057 17.7073Z" fill="white"/>
<path d="M11.1031 17.7073L11.4785 17.4213L11.8525 17.7073L11.7081 17.2494L12.0787 16.9648H11.6201L11.4778 16.5L11.3369 16.9648H10.8776L11.2496 17.2494L11.1031 17.7073Z" fill="white"/>
<path d="M13.8188 17.7073L14.1941 17.4213L14.5681 17.7073L14.4231 17.2494L14.7957 16.9648H14.3371L14.1941 16.5L14.0525 16.9648H13.5933L13.9652 17.2494L13.8188 17.7073Z" fill="white"/>
<path d="M15.3546 16.5L15.7279 16.2133L16.1013 16.5L15.9569 16.0394L16.3288 15.7561L15.8675 15.7575L15.7273 15.2927L15.5856 15.7575L15.125 15.7561L15.499 16.0394L15.3546 16.5Z" fill="white"/>
<path d="M1.88717 18.9152L2.26117 18.6313L2.63448 18.9152L2.48942 18.4539L2.86136 18.1707L2.40211 18.172L2.25979 17.7073L2.11954 18.172L1.65961 18.1707L2.03154 18.4539L1.88717 18.9152Z" fill="white"/>
<path d="M4.35871 18.9152L4.73202 18.6313L5.10602 18.9152L4.96096 18.4539L5.33221 18.1707L4.87434 18.172L4.73134 17.7073L4.5904 18.172L4.13184 18.1707L4.5024 18.4539L4.35871 18.9152Z" fill="white"/>
<path d="M7.08468 18.9152L7.45799 18.6313L7.8313 18.9152L7.68693 18.4539L8.05818 18.1707L7.59687 18.172L7.4573 17.7073L7.31568 18.172L6.85712 18.1707L7.22905 18.4539L7.08468 18.9152Z" fill="white"/>
<path d="M9.79067 18.9152L10.1633 18.6313L10.5373 18.9152L10.395 18.4539L10.7642 18.1707L10.3049 18.172L10.1633 17.7073L10.0217 18.172L9.56311 18.1707L9.93436 18.4539L9.79067 18.9152Z" fill="white"/>
<path d="M12.5056 18.9152L12.8796 18.6313L13.2529 18.9152L13.1106 18.4539L13.4798 18.1707L13.0206 18.172L12.8789 17.7073L12.738 18.172L12.2787 18.1707L12.65 18.4539L12.5056 18.9152Z" fill="white"/>
<path d="M3.20235 20.1232L3.57567 19.8358L3.94898 20.1232L3.80529 19.6612L4.17586 19.3807H3.71661L3.57498 18.9153L3.43404 19.3807H2.97479L3.34673 19.6612L3.20235 20.1232Z" fill="white"/>
<path d="M5.67393 20.1232L6.04724 19.8358L6.42055 20.1232L6.27618 19.6612L6.64743 19.3807H6.18749L6.04655 18.9153L5.90493 19.3807H5.44568L5.8183 19.6612L5.67393 20.1232Z" fill="white"/>
<path d="M8.40057 20.1232L8.77251 19.8358L9.14651 20.1232L8.99938 19.6612L9.37338 19.3807H8.91482L8.77251 18.9153L8.63088 19.3807H8.17163L8.54357 19.6612L8.40057 20.1232Z" fill="white"/>
<path d="M11.1031 20.1232L11.4785 19.8358L11.8525 20.1232L11.7081 19.6612L12.0787 19.3807H11.6201L11.4778 18.9153L11.3369 19.3807H10.8776L11.2496 19.6612L11.1031 20.1232Z" fill="white"/>
<path d="M13.8188 20.1232L14.1941 19.8358L14.5681 20.1232L14.4231 19.6612L14.7957 19.3807H14.3371L14.1941 18.9153L14.0525 19.3807H13.5933L13.9652 19.6612L13.8188 20.1232Z" fill="white"/>
<path d="M15.3546 18.9152L15.7279 18.6313L16.1013 18.9152L15.9569 18.4539L16.3288 18.1707L15.8675 18.172L15.7273 17.7073L15.5856 18.172L15.125 18.1707L15.499 18.4539L15.3546 18.9152Z" fill="white"/>
</svg>
